<svg width="733" height="637" viewBox="0 0 733 637" fill="none" xmlns="http://www.w3.org/2000/svg">
<path d="M494.468 629.198L477.745 622.064L466.274 537.14H313.509L301.075 621.718L286.114 629.295C285.398 629.658 284.824 630.255 284.485 630.989C284.146 631.724 284.061 632.552 284.245 633.342C284.429 634.131 284.87 634.834 285.498 635.337C286.126 635.84 286.902 636.114 287.703 636.114H493.089C493.91 636.114 494.705 635.826 495.339 635.3C495.974 634.774 496.41 634.041 496.572 633.227C496.734 632.412 496.613 631.566 496.23 630.832C495.846 630.097 495.224 629.52 494.468 629.198Z" fill="#E6E6E6"/>
<path d="M765.941 548.439H15.5189C11.5816 548.43 7.80865 546.839 5.02771 544.016C2.24677 541.192 0.684966 537.367 0.684939 533.378V426.178H780.775V533.378C780.774 537.367 779.213 541.192 776.432 544.016C773.651 546.839 769.878 548.43 765.941 548.439Z" fill="#CCCCCC"/>
<path d="M781.559 476.843H0V18.156C0.00549002 13.3423 1.89555 8.7274 5.25554 5.32368C8.61553 1.91996 13.171 0.00539853 17.9227 0H763.636C768.388 0.00538614 772.943 1.91995 776.303 5.32366C779.663 8.72738 781.554 13.3423 781.559 18.156V476.843Z" fill="#3F3D56"/>
<path d="M734.88 443.552H46.6794C43.0162 443.548 39.5042 442.072 36.9138 439.447C34.3235 436.823 32.8664 433.266 32.8623 429.555V47.2886C32.8664 43.5775 34.3234 40.0196 36.9137 37.3954C39.5041 34.7712 43.0161 33.295 46.6794 33.2907H734.88C738.543 33.295 742.055 34.7712 744.645 37.3954C747.236 40.0196 748.693 43.5775 748.697 47.2886V429.555C748.693 433.266 747.236 436.823 744.645 439.447C742.055 442.072 738.543 443.548 734.88 443.552Z" fill="white"/>
<path d="M583.786 637H197.076C196.68 637.008 196.292 636.884 195.973 636.646C195.654 636.408 195.422 636.069 195.313 635.684C195.244 635.421 195.236 635.146 195.289 634.88C195.342 634.614 195.455 634.363 195.619 634.148C195.782 633.933 195.992 633.759 196.233 633.639C196.473 633.519 196.737 633.456 197.006 633.456H583.642C584.06 633.441 584.471 633.57 584.807 633.821C585.143 634.073 585.386 634.433 585.494 634.842C585.551 635.101 585.55 635.37 585.49 635.628C585.431 635.887 585.315 636.128 585.151 636.336C584.987 636.543 584.779 636.71 584.543 636.825C584.306 636.94 584.048 636.999 583.786 637Z" fill="#CCCCCC"/>
<path d="M727.532 95.0916H561.37V223.692H727.532V95.0916Z" fill="#F2F2F2"/>
<path d="M719.276 101.482H569.626V217.302H719.276V101.482Z" fill="white"/>
<path d="M647.079 187.392C647.099 187.392 647.119 187.391 647.139 187.39C657.269 186.854 666.817 182.428 673.841 175.014C680.865 167.6 684.838 157.754 684.951 147.479C685.065 137.203 681.311 127.269 674.453 119.698C667.595 112.126 658.147 107.485 648.031 106.718C647.906 106.708 647.781 106.725 647.662 106.766C647.544 106.808 647.435 106.874 647.343 106.96C647.251 107.045 647.177 107.148 647.126 107.263C647.076 107.378 647.049 107.502 647.048 107.628L646.176 186.458C646.174 186.703 646.268 186.939 646.437 187.114C646.606 187.289 646.837 187.389 647.079 187.392Z" fill="#3F3D56"/>
<path d="M615.788 119.753C616.098 119.757 616.395 119.885 616.613 120.11L643.401 147.863C643.509 147.974 643.593 148.106 643.651 148.25C643.708 148.395 643.736 148.549 643.734 148.705L643.317 186.426C643.316 186.587 643.281 186.747 643.216 186.895C643.151 187.043 643.057 187.176 642.938 187.285C642.82 187.395 642.68 187.479 642.528 187.533C642.376 187.586 642.215 187.608 642.055 187.595C634.606 187.031 627.461 184.373 621.422 179.921C615.382 175.469 610.688 169.399 607.867 162.393C605.046 155.387 604.209 147.723 605.45 140.262C606.692 132.8 609.963 125.838 614.895 120.156C615.002 120.034 615.133 119.935 615.279 119.865C615.425 119.796 615.583 119.758 615.744 119.754C615.759 119.753 615.773 119.753 615.788 119.753Z" fill="#E6E6E6"/>
<path d="M643.028 106.396C643.327 106.4 643.613 106.518 643.829 106.728C643.945 106.84 644.037 106.974 644.099 107.124C644.161 107.273 644.191 107.434 644.189 107.596L643.812 141.63C643.81 141.864 643.739 142.092 643.608 142.286C643.477 142.479 643.293 142.629 643.078 142.716C642.864 142.803 642.628 142.824 642.402 142.776C642.175 142.728 641.968 142.613 641.806 142.445L618.43 118.227C618.319 118.112 618.233 117.975 618.175 117.825C618.118 117.675 618.092 117.514 618.098 117.353C618.103 117.192 618.142 117.034 618.21 116.889C618.278 116.743 618.374 116.613 618.493 116.507C625.292 110.445 633.911 106.883 642.955 106.397C642.979 106.396 643.004 106.396 643.028 106.396Z" fill="#589B34"/>
<path d="M630.985 203.738C630.969 205.174 630.534 206.573 629.733 207.758C628.932 208.943 627.803 209.86 626.488 210.395C625.172 210.929 623.73 211.057 622.343 210.761C620.956 210.465 619.687 209.759 618.696 208.733C617.705 207.706 617.037 206.405 616.776 204.993C616.515 203.582 616.673 202.124 617.23 200.804C617.787 199.483 618.718 198.36 619.905 197.576C621.092 196.791 622.483 196.381 623.9 196.398C625.8 196.421 627.613 197.208 628.941 198.584C630.269 199.96 631.005 201.814 630.985 203.738Z" fill="#589B34"/>
<path d="M651.459 203.971C651.443 205.407 651.008 206.805 650.207 207.99C649.406 209.175 648.277 210.093 646.961 210.627C645.646 211.162 644.204 211.289 642.817 210.993C641.43 210.698 640.16 209.992 639.17 208.965C638.179 207.938 637.51 206.637 637.25 205.226C636.989 203.815 637.147 202.357 637.704 201.036C638.261 199.716 639.192 198.593 640.379 197.808C641.566 197.024 642.956 196.614 644.374 196.63C646.274 196.654 648.086 197.44 649.415 198.816C650.743 200.192 651.478 202.046 651.459 203.971Z" fill="#3F3D56"/>
<path d="M671.933 204.203C671.917 205.639 671.481 207.038 670.681 208.223C669.88 209.408 668.751 210.325 667.435 210.86C666.12 211.395 664.677 211.522 663.29 211.226C661.903 210.93 660.634 210.224 659.643 209.198C658.652 208.171 657.984 206.87 657.723 205.458C657.463 204.047 657.621 202.589 658.178 201.269C658.735 199.948 659.666 198.825 660.853 198.041C662.04 197.257 663.43 196.847 664.848 196.863C666.747 196.886 668.56 197.673 669.889 199.049C671.217 200.425 671.952 202.279 671.933 204.203Z" fill="#E6E6E6"/>
<path d="M725.784 243.932H559.621V372.532H725.784V243.932Z" fill="#F2F2F2"/>
<path d="M717.527 250.322H567.877V366.142H717.527V250.322Z" fill="white"/>
<path d="M593.268 288.388C596.7 288.388 599.482 285.57 599.482 282.094C599.482 278.617 596.7 275.799 593.268 275.799C589.837 275.799 587.055 278.617 587.055 282.094C587.055 285.57 589.837 288.388 593.268 288.388Z" fill="#3F3D56"/>
<path d="M693.104 277.195C693.657 277.194 694.206 277.304 694.718 277.518C695.23 277.732 695.696 278.047 696.088 278.443C696.48 278.84 696.791 279.31 697.003 279.829C697.215 280.347 697.324 280.903 697.324 281.464C697.324 282.025 697.215 282.581 697.003 283.099C696.791 283.618 696.48 284.089 696.088 284.485C695.696 284.882 695.23 285.196 694.718 285.41C694.206 285.624 693.657 285.734 693.104 285.733H627.753C626.636 285.733 625.564 285.283 624.774 284.483C623.983 283.682 623.539 282.596 623.539 281.464C623.539 280.332 623.983 279.246 624.774 278.446C625.564 277.645 626.636 277.195 627.753 277.195H693.104ZM693.104 276.15H627.753C627.064 276.149 626.381 276.285 625.743 276.552C625.106 276.819 624.527 277.21 624.039 277.703C623.551 278.197 623.164 278.783 622.9 279.429C622.635 280.074 622.5 280.766 622.5 281.464C622.5 282.163 622.635 282.854 622.9 283.5C623.164 284.145 623.551 284.731 624.039 285.225C624.527 285.718 625.106 286.11 625.743 286.376C626.381 286.643 627.064 286.78 627.753 286.779H693.104C693.793 286.78 694.476 286.643 695.113 286.376C695.751 286.11 696.33 285.718 696.818 285.225C697.306 284.731 697.693 284.145 697.957 283.5C698.221 282.854 698.357 282.163 698.357 281.464C698.357 280.766 698.221 280.074 697.957 279.429C697.693 278.783 697.306 278.197 696.818 277.703C696.33 277.21 695.751 276.819 695.113 276.552C694.476 276.285 693.793 276.149 693.104 276.15Z" fill="#3F3D56"/>
<path d="M667.317 286.779H618.122C616.731 286.779 615.397 286.219 614.413 285.222C613.429 284.225 612.876 282.874 612.876 281.464C612.876 280.055 613.429 278.703 614.413 277.706C615.397 276.71 616.731 276.15 618.122 276.15H667.317C668.709 276.15 670.043 276.71 671.027 277.706C672.011 278.703 672.563 280.055 672.563 281.464C672.563 282.874 672.011 284.225 671.027 285.222C670.043 286.219 668.709 286.779 667.317 286.779Z" fill="#589B34"/>
<path d="M593.268 314.527C596.7 314.527 599.482 311.708 599.482 308.232C599.482 304.756 596.7 301.937 593.268 301.937C589.837 301.937 587.055 304.756 587.055 308.232C587.055 311.708 589.837 314.527 593.268 314.527Z" fill="#3F3D56"/>
<path d="M693.104 303.334C693.657 303.333 694.206 303.442 694.718 303.657C695.23 303.871 695.696 304.185 696.088 304.581C696.48 304.978 696.791 305.449 697.003 305.967C697.215 306.486 697.324 307.041 697.324 307.603C697.324 308.164 697.215 308.719 697.003 309.238C696.791 309.756 696.48 310.227 696.088 310.624C695.696 311.02 695.23 311.334 694.718 311.548C694.206 311.763 693.657 311.872 693.104 311.871H627.753C626.636 311.871 625.564 311.422 624.774 310.621C623.983 309.82 623.539 308.735 623.539 307.603C623.539 306.47 623.983 305.384 624.774 304.584C625.564 303.783 626.636 303.334 627.753 303.334H693.104ZM693.104 302.288H627.753C626.362 302.288 625.028 302.848 624.044 303.845C623.06 304.841 622.507 306.193 622.507 307.603C622.507 309.012 623.06 310.364 624.044 311.36C625.028 312.357 626.362 312.917 627.753 312.917H693.104C694.495 312.917 695.829 312.357 696.813 311.36C697.797 310.364 698.349 309.012 698.349 307.603C698.349 306.193 697.797 304.841 696.813 303.845C695.829 302.848 694.495 302.288 693.104 302.288Z" fill="#3F3D56"/>
<path d="M685.895 312.917H618.122C616.731 312.917 615.397 312.357 614.413 311.36C613.429 310.364 612.877 309.012 612.877 307.602C612.877 306.193 613.429 304.841 614.413 303.845C615.397 302.848 616.731 302.288 618.122 302.288H685.895C687.286 302.288 688.62 302.848 689.604 303.845C690.588 304.841 691.141 306.193 691.141 307.602C691.141 309.012 690.588 310.364 689.604 311.36C688.62 312.357 687.286 312.917 685.895 312.917Z" fill="#589B34"/>
<path d="M593.268 340.665C596.7 340.665 599.482 337.847 599.482 334.37C599.482 330.894 596.7 328.076 593.268 328.076C589.837 328.076 587.055 330.894 587.055 334.37C587.055 337.847 589.837 340.665 593.268 340.665Z" fill="#3F3D56"/>
<path d="M693.104 329.472C693.657 329.471 694.206 329.581 694.718 329.795C695.23 330.009 695.696 330.323 696.088 330.72C696.48 331.116 696.791 331.587 697.003 332.106C697.215 332.624 697.324 333.18 697.324 333.741C697.324 334.302 697.215 334.858 697.003 335.376C696.791 335.894 696.48 336.365 696.088 336.762C695.696 337.158 695.23 337.473 694.718 337.687C694.206 337.901 693.657 338.011 693.104 338.01H627.753C626.636 338.01 625.564 337.56 624.774 336.759C623.983 335.959 623.539 334.873 623.539 333.741C623.539 332.609 623.983 331.523 624.774 330.722C625.564 329.922 626.636 329.472 627.753 329.472H693.104ZM693.104 328.426H627.753C626.362 328.426 625.028 328.986 624.044 329.983C623.06 330.98 622.507 332.331 622.507 333.741C622.507 335.15 623.06 336.502 624.044 337.499C625.028 338.495 626.362 339.055 627.753 339.055H693.104C694.495 339.055 695.829 338.495 696.813 337.499C697.797 336.502 698.349 335.15 698.349 333.741C698.349 332.331 697.797 330.98 696.813 329.983C695.829 328.986 694.495 328.426 693.104 328.426Z" fill="#3F3D56"/>
<path d="M645.644 339.055H618.122C617.433 339.056 616.75 338.92 616.113 338.653C615.475 338.386 614.896 337.995 614.408 337.501C613.92 337.008 613.533 336.422 613.269 335.776C613.005 335.131 612.869 334.439 612.869 333.741C612.869 333.042 613.005 332.351 613.269 331.705C613.533 331.06 613.92 330.474 614.408 329.98C614.896 329.487 615.475 329.095 616.113 328.829C616.75 328.562 617.433 328.425 618.122 328.426H645.644C647.034 328.428 648.366 328.989 649.349 329.986C650.331 330.982 650.882 332.333 650.882 333.741C650.882 335.149 650.331 336.499 649.349 337.496C648.366 338.492 647.034 339.053 645.644 339.055Z" fill="#589B34"/>
<path d="M522.89 117.844H58.6609V358.866H522.89V117.844Z" fill="#F2F2F2"/>
<path d="M507.416 129.82H74.1353V346.89H507.416V129.82Z" fill="white"/>
<path d="M453.68 313.774H137.827C137.565 313.774 137.313 313.668 137.128 313.481C136.942 313.293 136.838 313.038 136.838 312.773V159.408C136.838 159.143 136.942 158.888 137.128 158.7C137.313 158.513 137.565 158.407 137.827 158.407C138.089 158.407 138.34 158.513 138.526 158.7C138.711 158.888 138.815 159.143 138.815 159.408V311.771H453.68C453.942 311.771 454.194 311.877 454.379 312.064C454.564 312.252 454.668 312.507 454.668 312.773C454.668 313.038 454.564 313.293 454.379 313.481C454.194 313.668 453.942 313.774 453.68 313.774Z" fill="#3F3D56"/>
<path d="M205.311 302.759H176.583C175.805 302.758 175.059 302.444 174.509 301.887C173.959 301.33 173.649 300.575 173.648 299.786V259.668C173.649 258.88 173.959 258.124 174.509 257.567C175.059 257.01 175.805 256.696 176.583 256.695H205.311C206.089 256.696 206.835 257.01 207.385 257.567C207.935 258.124 208.244 258.88 208.245 259.668V299.786C208.244 300.575 207.935 301.33 207.385 301.887C206.835 302.444 206.089 302.758 205.311 302.759Z" fill="#589B34"/>
<path d="M257.7 302.759H228.972C228.194 302.758 227.448 302.444 226.898 301.887C226.348 301.33 226.039 300.575 226.038 299.786V221.616C226.039 220.827 226.348 220.072 226.898 219.515C227.448 218.958 228.194 218.644 228.972 218.643H257.7C258.478 218.644 259.224 218.958 259.774 219.515C260.324 220.072 260.633 220.827 260.634 221.616V299.786C260.633 300.575 260.324 301.33 259.774 301.887C259.224 302.444 258.478 302.758 257.7 302.759Z" fill="#589B34"/>
<path d="M310.089 302.759H281.361C280.583 302.758 279.837 302.444 279.287 301.887C278.737 301.33 278.428 300.575 278.427 299.786V259.668C278.428 258.88 278.737 258.124 279.287 257.567C279.837 257.01 280.583 256.696 281.361 256.695H310.089C310.867 256.696 311.613 257.01 312.163 257.567C312.713 258.124 313.023 258.88 313.024 259.668V299.786C313.023 300.575 312.713 301.33 312.163 301.887C311.613 302.444 310.867 302.758 310.089 302.759Z" fill="#589B34"/>
<path d="M362.479 302.759H333.75C332.99 302.775 332.255 302.486 331.705 301.954C331.155 301.422 330.835 300.691 330.816 299.921V206.46C330.835 205.69 331.155 204.959 331.705 204.427C332.255 203.895 332.99 203.606 333.75 203.623H362.479C363.239 203.606 363.974 203.895 364.524 204.427C365.074 204.959 365.394 205.69 365.413 206.46V299.921C365.394 300.691 365.074 301.422 364.524 301.954C363.974 302.486 363.239 302.775 362.479 302.759Z" fill="#589B34"/>
<path d="M414.868 302.759H386.14C385.362 302.758 384.616 302.445 384.066 301.887C383.516 301.33 383.206 300.575 383.205 299.786V179.558C383.206 178.77 383.516 178.014 384.066 177.457C384.616 176.9 385.362 176.586 386.14 176.585H414.868C415.646 176.586 416.392 176.9 416.942 177.457C417.492 178.014 417.801 178.77 417.802 179.558V299.786C417.801 300.575 417.492 301.33 416.942 301.887C416.392 302.445 415.646 302.758 414.868 302.759Z" fill="#589B34"/>
<path d="M190.947 244.679C194.222 244.679 196.878 241.989 196.878 238.671C196.878 235.352 194.222 232.663 190.947 232.663C187.671 232.663 185.016 235.352 185.016 238.671C185.016 241.989 187.671 244.679 190.947 244.679Z" fill="#3F3D56"/>
<path d="M243.336 205.625C246.612 205.625 249.267 202.935 249.267 199.617C249.267 196.299 246.612 193.609 243.336 193.609C240.061 193.609 237.405 196.299 237.405 199.617C237.405 202.935 240.061 205.625 243.336 205.625Z" fill="#3F3D56"/>
<path d="M295.725 244.679C299.001 244.679 301.656 241.989 301.656 238.671C301.656 235.352 299.001 232.663 295.725 232.663C292.45 232.663 289.794 235.352 289.794 238.671C289.794 241.989 292.45 244.679 295.725 244.679Z" fill="#3F3D56"/>
<path d="M348.115 186.599C351.39 186.599 354.045 183.909 354.045 180.591C354.045 177.273 351.39 174.583 348.115 174.583C344.839 174.583 342.184 177.273 342.184 180.591C342.184 183.909 344.839 186.599 348.115 186.599Z" fill="#3F3D56"/>
<path d="M400.504 164.569C403.779 164.569 406.435 161.879 406.435 158.561C406.435 155.242 403.779 152.552 400.504 152.552C397.228 152.552 394.573 155.242 394.573 158.561C394.573 161.879 397.228 164.569 400.504 164.569Z" fill="#3F3D56"/>
<path d="M295.85 240.016L243.336 200.17L191.539 239.472L190.354 237.87L243.336 197.667L295.6 237.324L347.537 179.748L347.744 179.662L400.134 158.279L400.873 160.136L348.692 181.435L295.85 240.016Z" fill="#3F3D56"/>
</svg>
